<svg width="20" height="20" viewBox="0 0 20 20" fill="none" xmlns="http://www.w3.org/2000/svg">
<g clip-path="url(#clip0_70_329)">
<path d="M8.53583 13.595L5 10.0584L6.17833 8.88002L8.53583 11.2367L13.2492 6.52252L14.4283 7.70169L8.53583 13.595Z" fill="#44C849"/>
<path fill-rule="evenodd" clip-rule="evenodd" d="M0.833008 10C0.833008 4.93751 4.93717 0.833344 9.99967 0.833344C15.0622 0.833344 19.1663 4.93751 19.1663 10C19.1663 15.0625 15.0622 19.1667 9.99967 19.1667C4.93717 19.1667 0.833008 15.0625 0.833008 10ZM9.99967 17.5C9.01476 17.5 8.03949 17.306 7.12955 16.9291C6.21961 16.5522 5.39281 15.9998 4.69637 15.3033C3.99993 14.6069 3.44749 13.7801 3.07058 12.8701C2.69367 11.9602 2.49967 10.9849 2.49967 10C2.49967 9.0151 2.69367 8.03983 3.07058 7.12988C3.44749 6.21994 3.99993 5.39315 4.69637 4.69671C5.39281 4.00027 6.21961 3.44782 7.12955 3.07091C8.03949 2.694 9.01476 2.50001 9.99967 2.50001C11.9888 2.50001 13.8965 3.29019 15.303 4.69671C16.7095 6.10323 17.4997 8.01089 17.4997 10C17.4997 11.9891 16.7095 13.8968 15.303 15.3033C13.8965 16.7098 11.9888 17.5 9.99967 17.5Z" fill="#44C849"/>
</g>
<defs>
<clipPath id="clip0_70_329">
<rect width="20" height="20" fill="white"/>
</clipPath>
</defs>
</svg>
