<svg width="52" height="40" viewBox="0 0 52 40" fill="none" xmlns="http://www.w3.org/2000/svg">
<path fill-rule="evenodd" clip-rule="evenodd" d="M9.4875 11C10.2168 11 10.9163 10.7103 11.432 10.1945C11.9478 9.67882 12.2375 8.97935 12.2375 8.25C12.2375 7.52065 11.9478 6.82118 11.432 6.30546C10.9163 5.78973 10.2168 5.5 9.4875 5.5C8.75815 5.5 8.05868 5.78973 7.54296 6.30546C7.02723 6.82118 6.7375 7.52065 6.7375 8.25C6.7375 8.97935 7.02723 9.67882 7.54296 10.1945C8.05868 10.7103 8.75815 11 9.4875 11ZM9.4875 16.5C11.6755 16.5 13.774 15.6308 15.3211 14.0836C16.8683 12.5365 17.7375 10.438 17.7375 8.25C17.7375 6.06196 16.8683 3.96354 15.3211 2.41637C13.774 0.869194 11.6755 0 9.4875 0C7.29946 0 5.20104 0.869194 3.65387 2.41637C2.10669 3.96354 1.2375 6.06196 1.2375 8.25C1.2375 10.438 2.10669 12.5365 3.65387 14.0836C5.20104 15.6308 7.29946 16.5 9.4875 16.5Z" fill="#7C4DFF"/>
<path fill-rule="evenodd" clip-rule="evenodd" d="M9.625 18.5625C8.53098 18.5625 7.48177 18.9971 6.70818 19.7707C5.9346 20.5443 5.5 21.5935 5.5 22.6875V26.8125C5.5 27.5418 5.21027 28.2413 4.69454 28.757C4.17882 29.2728 3.47935 29.5625 2.75 29.5625C2.02065 29.5625 1.32118 29.2728 0.805456 28.757C0.289731 28.2413 0 27.5418 0 26.8125V22.6875C0 20.1348 1.01406 17.6866 2.8191 15.8816C4.62413 14.0766 7.07229 13.0625 9.625 13.0625C12.1777 13.0625 14.6259 14.0766 16.4309 15.8816C18.2359 17.6866 19.25 20.1348 19.25 22.6875V26.8125C19.25 27.5418 18.9603 28.2413 18.4445 28.757C17.9288 29.2728 17.2293 29.5625 16.5 29.5625C15.7707 29.5625 15.0712 29.2728 14.5555 28.757C14.0397 28.2413 13.75 27.5418 13.75 26.8125V22.6875C13.75 21.5935 13.3154 20.5443 12.5418 19.7707C11.7682 18.9971 10.719 18.5625 9.625 18.5625ZM42.4875 11C41.7582 11 41.0587 10.7103 40.543 10.1945C40.0272 9.67882 39.7375 8.97935 39.7375 8.25C39.7375 7.52065 40.0272 6.82118 40.543 6.30546C41.0587 5.78973 41.7582 5.5 42.4875 5.5C43.2168 5.5 43.9163 5.78973 44.432 6.30546C44.9478 6.82118 45.2375 7.52065 45.2375 8.25C45.2375 8.97935 44.9478 9.67882 44.432 10.1945C43.9163 10.7103 43.2168 11 42.4875 11ZM42.4875 16.5C40.2995 16.5 38.201 15.6308 36.6539 14.0836C35.1067 12.5365 34.2375 10.438 34.2375 8.25C34.2375 6.06196 35.1067 3.96354 36.6539 2.41637C38.201 0.869194 40.2995 0 42.4875 0C44.6755 0 46.774 0.869194 48.3211 2.41637C49.8683 3.96354 50.7375 6.06196 50.7375 8.25C50.7375 10.438 49.8683 12.5365 48.3211 14.0836C46.774 15.6308 44.6755 16.5 42.4875 16.5Z" fill="#7C4DFF"/>
<path fill-rule="evenodd" clip-rule="evenodd" d="M42.35 18.5625C43.444 18.5625 44.4932 18.9971 45.2668 19.7707C46.0404 20.5443 46.475 21.5935 46.475 22.6875V26.8125C46.475 27.5418 46.7647 28.2413 47.2805 28.757C47.7962 29.2728 48.4957 29.5625 49.225 29.5625C49.9543 29.5625 50.6538 29.2728 51.1695 28.757C51.6853 28.2413 51.975 27.5418 51.975 26.8125V22.6875C51.975 20.1348 50.9609 17.6866 49.1559 15.8816C47.3509 14.0766 44.9027 13.0625 42.35 13.0625C39.7973 13.0625 37.3491 14.0766 35.5441 15.8816C33.7391 17.6866 32.725 20.1348 32.725 22.6875V26.8125C32.725 27.5418 33.0147 28.2413 33.5305 28.757C34.0462 29.2728 34.7457 29.5625 35.475 29.5625C36.2043 29.5625 36.9038 29.2728 37.4195 28.757C37.9353 28.2413 38.225 27.5418 38.225 26.8125V22.6875C38.225 21.5935 38.6596 20.5443 39.4332 19.7707C40.2068 18.9971 41.256 18.5625 42.35 18.5625Z" fill="#7C4DFF"/>
<path fill-rule="evenodd" clip-rule="evenodd" d="M26.125 26.125C24.3016 26.125 22.553 26.8493 21.2636 28.1386C19.9743 29.428 19.25 31.1766 19.25 33V37.125C19.25 37.8543 18.9603 38.5538 18.4445 39.0695C17.9288 39.5853 17.2293 39.875 16.5 39.875C15.7707 39.875 15.0712 39.5853 14.5555 39.0695C14.0397 38.5538 13.75 37.8543 13.75 37.125V33C13.75 29.7179 15.0538 26.5703 17.3746 24.2496C19.6953 21.9288 22.8429 20.625 26.125 20.625C29.4071 20.625 32.5547 21.9288 34.8754 24.2496C37.1962 26.5703 38.5 29.7179 38.5 33V37.125C38.5 37.8543 38.2103 38.5538 37.6945 39.0695C37.1788 39.5853 36.4793 39.875 35.75 39.875C35.0207 39.875 34.3212 39.5853 33.8055 39.0695C33.2897 38.5538 33 37.8543 33 37.125V33C33 31.1766 32.2757 29.428 30.9864 28.1386C29.697 26.8493 27.9484 26.125 26.125 26.125Z" fill="#7C4DFF"/>
<path fill-rule="evenodd" clip-rule="evenodd" d="M25.9875 18.5625C26.7168 18.5625 27.4163 18.2728 27.932 17.757C28.4478 17.2413 28.7375 16.5418 28.7375 15.8125C28.7375 15.0832 28.4478 14.3837 27.932 13.868C27.4163 13.3522 26.7168 13.0625 25.9875 13.0625C25.2582 13.0625 24.5587 13.3522 24.043 13.868C23.5272 14.3837 23.2375 15.0832 23.2375 15.8125C23.2375 16.5418 23.5272 17.2413 24.043 17.757C24.5587 18.2728 25.2582 18.5625 25.9875 18.5625ZM25.9875 24.0625C28.1755 24.0625 30.274 23.1933 31.8211 21.6461C33.3683 20.099 34.2375 18.0005 34.2375 15.8125C34.2375 13.6245 33.3683 11.526 31.8211 9.97887C30.274 8.43169 28.1755 7.5625 25.9875 7.5625C23.7995 7.5625 21.701 8.43169 20.1539 9.97887C18.6067 11.526 17.7375 13.6245 17.7375 15.8125C17.7375 18.0005 18.6067 20.099 20.1539 21.6461C21.701 23.1933 23.7995 24.0625 25.9875 24.0625Z" fill="#7C4DFF"/>
</svg>
