<svg width="101" height="101" viewBox="0 0 101 101" fill="none" xmlns="http://www.w3.org/2000/svg">
<path fill-rule="evenodd" clip-rule="evenodd" d="M50.4999 5.5486e-10C57.1316 -3.10859e-05 63.6985 1.30616 69.8254 3.84401C75.9524 6.38185 81.5195 10.1016 86.2088 14.791C90.8982 19.4803 94.618 25.0474 97.1559 31.1744C99.6938 37.3013 101 43.8681 101 50.4999C101 78.3903 78.3903 101 50.4999 101C22.6097 101 0 78.3903 0 50.4999C0 22.6097 22.6097 5.5486e-10 50.4999 5.5486e-10ZM55.55 55.55H45.45C32.9477 55.55 22.2141 63.1219 17.5846 73.9308C24.9097 84.2022 36.9227 90.8999 50.4999 90.8999C64.0771 90.8999 76.0901 84.2022 83.4154 73.93C78.7859 63.122 68.0523 55.55 55.55 55.55ZM50.4999 15.15C42.1328 15.15 35.3499 21.9329 35.3499 30.3C35.3499 38.667 42.1328 45.45 50.4999 45.45C58.8669 45.45 65.6499 38.667 65.6499 30.3C65.6499 21.9329 58.8672 15.15 50.4999 15.15Z" fill="white"/>
</svg>
