<svg width="44" height="39" viewBox="0 0 44 39" fill="none" xmlns="http://www.w3.org/2000/svg">
<path d="M21.8833 39C21.2694 39 20.7552 38.792 20.3407 38.376C19.9261 37.96 19.7181 37.4458 19.7167 36.8333C19.7167 36.5806 19.7708 36.3184 19.8792 36.0468C19.9875 35.7753 20.15 35.5319 20.3667 35.3167L30.3875 25.2958L28.8167 23.725L18.85 33.7458C18.6333 33.9625 18.3986 34.125 18.1458 34.2333C17.8931 34.3417 17.6222 34.3958 17.3333 34.3958C16.7194 34.3958 16.2052 34.1886 15.7907 33.774C15.3761 33.3595 15.1681 32.8445 15.1667 32.2292C15.1667 31.8681 15.2208 31.5698 15.3292 31.3343C15.4375 31.0989 15.5819 30.8916 15.7625 30.7125L25.7833 20.6917L24.2667 19.175L14.2458 29.1417C14.0292 29.3583 13.7944 29.5208 13.5417 29.6292C13.2889 29.7375 13 29.7917 12.675 29.7917C12.0972 29.7917 11.5917 29.575 11.1583 29.1417C10.725 28.7083 10.5083 28.2028 10.5083 27.625C10.5083 27.3361 10.5625 27.0653 10.6708 26.8125C10.7792 26.5597 10.9417 26.325 11.1583 26.1083L21.1792 16.0875L19.6083 14.5708L9.64167 24.5917C9.46111 24.7722 9.24444 24.9167 8.99167 25.025C8.73889 25.1333 8.43194 25.1875 8.07083 25.1875C7.45694 25.1875 6.942 24.9795 6.526 24.5635C6.11 24.1475 5.90272 23.6333 5.90417 23.0208C5.90417 22.732 5.95833 22.4611 6.06667 22.2083C6.175 21.9556 6.3375 21.7208 6.55417 21.5042L18.6333 9.42501L26.7583 17.6042C27.1556 18.0014 27.625 18.3177 28.1667 18.5532C28.7083 18.7886 29.25 18.9056 29.7917 18.9042C30.9472 18.9042 31.9583 18.4983 32.825 17.6865C33.6917 16.8747 34.125 15.8362 34.125 14.5708C34.125 14.0653 34.0347 13.5417 33.8542 13C33.6736 12.4583 33.3486 11.9528 32.8792 11.4833L23.1833 1.78751C23.7972 1.20973 24.4833 0.767731 25.2417 0.461509C26 0.155287 26.7583 0.00145351 27.5167 9.06555e-06C28.4556 9.06555e-06 29.3222 0.153843 30.1167 0.461509C30.9111 0.769176 31.6333 1.24729 32.2833 1.89584L41.4375 11.1042C42.0875 11.7542 42.5663 12.4764 42.874 13.2708C43.1817 14.0653 43.3348 14.9861 43.3333 16.0333C43.3333 16.7556 43.1708 17.4872 42.8458 18.2282C42.5208 18.9692 42.0514 19.6459 41.4375 20.2583L23.4 38.35C23.1111 38.6389 22.8583 38.8195 22.6417 38.8917C22.425 38.9639 22.1722 39 21.8833 39ZM3.30417 21.6667L1.89583 20.2583C1.28194 19.6806 0.8125 18.9945 0.4875 18.2C0.1625 17.4056 0 16.575 0 15.7083C0 14.7695 0.180556 13.9028 0.541667 13.1083C0.902778 12.3139 1.35417 11.6458 1.89583 11.1042L11.05 1.89584C11.6278 1.31806 12.3139 0.857287 13.1083 0.513509C13.9028 0.169731 14.6792 -0.00143538 15.4375 9.06555e-06C16.4125 9.06555e-06 17.2792 0.135787 18.0375 0.407342C18.7958 0.678898 19.5361 1.17506 20.2583 1.89584L31.3625 13C31.5792 13.2167 31.7417 13.4514 31.85 13.7042C31.9583 13.957 32.0125 14.2278 32.0125 14.5167C32.0125 15.0945 31.7958 15.6 31.3625 16.0333C30.9292 16.4667 30.4236 16.6833 29.8458 16.6833C29.5208 16.6833 29.25 16.6386 29.0333 16.549C28.8167 16.4595 28.5819 16.2876 28.3292 16.0333L18.5792 6.39168L3.30417 21.6667Z" fill="#7C4DFF"/>
</svg>
