<svg width="52" height="52" viewBox="0 0 52 52" fill="none" xmlns="http://www.w3.org/2000/svg">
<path d="M26.2163 45.5C25.6025 45.5 25.0882 45.292 24.6737 44.876C24.2591 44.46 24.0511 43.9458 24.0497 43.3333C24.0497 43.0806 24.1038 42.8184 24.2122 42.5468C24.3205 42.2753 24.483 42.0319 24.6997 41.8167L34.7205 31.7958L33.1497 30.225L23.183 40.2458C22.9663 40.4625 22.7316 40.625 22.4788 40.7333C22.2261 40.8417 21.9552 40.8958 21.6663 40.8958C21.0525 40.8958 20.5382 40.6886 20.1237 40.274C19.7091 39.8595 19.5011 39.3445 19.4997 38.7292C19.4997 38.3681 19.5538 38.0698 19.6622 37.8343C19.7705 37.5989 19.915 37.3916 20.0955 37.2125L30.1163 27.1917L28.5997 25.675L18.5788 35.6417C18.3622 35.8583 18.1275 36.0208 17.8747 36.1292C17.6219 36.2375 17.333 36.2917 17.008 36.2917C16.4302 36.2917 15.9247 36.075 15.4913 35.6417C15.058 35.2083 14.8413 34.7028 14.8413 34.125C14.8413 33.8361 14.8955 33.5653 15.0038 33.3125C15.1122 33.0597 15.2747 32.825 15.4913 32.6083L25.5122 22.5875L23.9413 21.0708L13.9747 31.0917C13.7941 31.2722 13.5775 31.4167 13.3247 31.525C13.0719 31.6333 12.765 31.6875 12.4038 31.6875C11.79 31.6875 11.275 31.4795 10.859 31.0635C10.443 30.6475 10.2357 30.1333 10.2372 29.5208C10.2372 29.232 10.2913 28.9611 10.3997 28.7083C10.508 28.4556 10.6705 28.2208 10.8872 28.0042L22.9663 15.925L31.0913 24.1042C31.4886 24.5014 31.958 24.8177 32.4997 25.0532C33.0413 25.2886 33.583 25.4056 34.1247 25.4042C35.2802 25.4042 36.2913 24.9983 37.158 24.1865C38.0247 23.3747 38.458 22.3362 38.458 21.0708C38.458 20.5653 38.3677 20.0417 38.1872 19.5C38.0066 18.9583 37.6816 18.4528 37.2122 17.9833L27.5163 8.28751C28.1302 7.70973 28.8163 7.26773 29.5747 6.96151C30.333 6.65529 31.0913 6.50145 31.8497 6.50001C32.7886 6.50001 33.6552 6.65384 34.4497 6.96151C35.2441 7.26918 35.9663 7.74729 36.6163 8.39584L45.7705 17.6042C46.4205 18.2542 46.8993 18.9764 47.207 19.7708C47.5147 20.5653 47.6678 21.4861 47.6663 22.5333C47.6663 23.2556 47.5038 23.9872 47.1788 24.7282C46.8538 25.4692 46.3844 26.1459 45.7705 26.7583L27.733 44.85C27.4441 45.1389 27.1913 45.3195 26.9747 45.3917C26.758 45.4639 26.5052 45.5 26.2163 45.5ZM7.63717 28.1667L6.22884 26.7583C5.61495 26.1806 5.14551 25.4945 4.82051 24.7C4.49551 23.9056 4.33301 23.075 4.33301 22.2083C4.33301 21.2695 4.51356 20.4028 4.87467 19.6083C5.23579 18.8139 5.68717 18.1458 6.22884 17.6042L15.383 8.39584C15.9608 7.81806 16.6469 7.35729 17.4413 7.01351C18.2358 6.66973 19.0122 6.49856 19.7705 6.50001C20.7455 6.50001 21.6122 6.63579 22.3705 6.90734C23.1288 7.1789 23.8691 7.67506 24.5913 8.39584L35.6955 19.5C35.9122 19.7167 36.0747 19.9514 36.183 20.2042C36.2913 20.457 36.3455 20.7278 36.3455 21.0167C36.3455 21.5945 36.1288 22.1 35.6955 22.5333C35.2622 22.9667 34.7566 23.1833 34.1788 23.1833C33.8538 23.1833 33.583 23.1386 33.3663 23.049C33.1497 22.9595 32.915 22.7876 32.6622 22.5333L22.9122 12.8917L7.63717 28.1667Z" fill="white"/>
</svg>
