<svg width="18" height="18" viewBox="0 0 18 18" fill="none" xmlns="http://www.w3.org/2000/svg">
<g clip-path="url(#clip0_198_1179)">
<path fill-rule="evenodd" clip-rule="evenodd" d="M15.501 8.73485C15.6657 8.65394 15.7916 8.51091 15.8509 8.3372C15.9103 8.1635 15.8982 7.97334 15.8174 7.80854L13.9917 4.0777C13.9517 3.99605 13.896 3.92309 13.8278 3.86297C13.7596 3.80285 13.6803 3.75676 13.5943 3.72731C13.5082 3.69787 13.4173 3.68566 13.3265 3.69137C13.2358 3.69709 13.1471 3.72062 13.0654 3.76062L11.822 4.36985C11.6573 4.45064 11.5314 4.5935 11.472 4.76705C11.4125 4.9406 11.4244 5.13065 11.505 5.29547L13.3313 9.02631C13.3713 9.10795 13.427 9.18092 13.4952 9.24104C13.5634 9.30116 13.6427 9.34725 13.7288 9.3767C13.8148 9.40614 13.9057 9.41835 13.9965 9.41264C14.0872 9.40692 14.1759 9.38339 14.2576 9.34339L15.501 8.73485ZM12.8238 4.842C12.7002 4.9026 12.6056 5.00983 12.561 5.14012C12.5164 5.27041 12.5254 5.41307 12.586 5.53674C12.6466 5.6604 12.7538 5.75493 12.8841 5.79952C13.0144 5.84412 13.1571 5.83513 13.2807 5.77454C13.4044 5.71395 13.4989 5.60672 13.5435 5.47643C13.5881 5.34614 13.5791 5.20347 13.5185 5.07981C13.458 4.95615 13.3507 4.86162 13.2204 4.81702C13.0901 4.77243 12.9475 4.78141 12.8238 4.842ZM4.86435 3.924C4.69818 3.846 4.50783 3.83719 4.33516 3.89951C4.16249 3.96182 4.02164 4.09017 3.94358 4.25631L2.17889 8.01693C2.10089 8.1831 2.09208 8.37345 2.15439 8.54612C2.21671 8.71879 2.34505 8.85964 2.5112 8.9377L3.76497 9.52616C3.93114 9.60416 4.12149 9.61297 4.29416 9.55065C4.46683 9.48834 4.60768 9.36 4.68574 9.19385L6.45112 5.43324C6.48972 5.35091 6.51173 5.26179 6.51588 5.17096C6.52004 5.08014 6.50626 4.98938 6.47534 4.90388C6.44441 4.81837 6.39695 4.7398 6.33566 4.67264C6.27437 4.60548 6.20045 4.55105 6.11812 4.51247L4.86435 3.924ZM3.50604 8.44893C3.56783 8.47832 3.63482 8.49522 3.70316 8.49864C3.7715 8.50206 3.83984 8.49193 3.90426 8.46885C3.96867 8.44577 4.02789 8.41019 4.0785 8.36414C4.12912 8.3181 4.17013 8.26251 4.19919 8.20056C4.22825 8.13861 4.24478 8.07153 4.24782 8.00317C4.25087 7.93481 4.24038 7.86653 4.21694 7.80224C4.19351 7.73795 4.1576 7.67893 4.11129 7.62857C4.06497 7.5782 4.00915 7.53749 3.94704 7.50877C3.8225 7.45118 3.68022 7.44523 3.5513 7.49222C3.42238 7.53921 3.3173 7.63532 3.25902 7.75955C3.20075 7.88378 3.19402 8.02603 3.24031 8.1552C3.2866 8.28438 3.38213 8.38998 3.50604 8.44893Z" fill="#F97316"/>
<path d="M11.8477 5.88046L11.8574 5.87907H11.8595C11.9606 5.86582 12.0575 5.83039 12.1433 5.77534C12.2291 5.72029 12.3017 5.64697 12.3559 5.56061L12.4562 5.1023C12.4444 5.01209 12.4149 4.92511 12.3694 4.84631C12.3239 4.76752 12.2633 4.69847 12.1911 4.64311C12.1189 4.58775 12.0365 4.54716 11.9486 4.52368C11.8607 4.50019 11.769 4.49426 11.6788 4.50623H11.6746L11.6608 4.50831L11.6144 4.51523L11.4441 4.53946C11.2994 4.56161 11.0979 4.59484 10.866 4.63638C10.4084 4.72084 9.80609 4.84892 9.29309 5.01992C8.99886 5.11823 8.70671 5.29892 8.44986 5.48723C8.18471 5.68107 7.9154 5.913 7.66202 6.14838C7.21423 6.57154 6.78617 7.01509 6.37917 7.47761C5.99356 7.91377 5.88417 8.64 6.3674 9.16407C6.60694 9.42438 7.00432 9.77884 7.53809 9.93946C8.11132 10.1125 8.76071 10.0364 9.39486 9.56907L9.89402 9.24646C9.94894 9.288 10.0112 9.33831 10.0809 9.39738C10.254 9.54277 10.4444 9.71515 10.6237 9.88407C10.8273 10.076 11.0274 10.2714 11.2239 10.4705L11.2613 10.5085L11.2703 10.5182L11.2731 10.521L11.3548 10.6055L11.46 10.6574C11.8616 10.8582 12.279 10.7751 12.549 10.6851C12.8377 10.5875 13.1126 10.4282 13.3341 10.2815C13.6121 10.0948 13.8752 9.88694 14.1212 9.65977L14.1351 9.64661L14.1399 9.64246L14.1413 9.64107C14.2073 9.57852 14.2611 9.50359 14.2981 9.42054C14.3351 9.33749 14.3555 9.24796 14.3579 9.15706C14.3604 9.06616 14.3449 8.97567 14.3123 8.89075C14.2798 8.80583 14.2309 8.72816 14.1683 8.66215C14.1058 8.59615 14.0308 8.54311 13.9478 8.50607C13.8647 8.46902 13.7752 8.4487 13.6843 8.44626C13.5934 8.44381 13.5029 8.4593 13.418 8.49183C13.3331 8.52436 13.2554 8.57329 13.1894 8.63584L13.1887 8.63654L13.1811 8.64346L13.1465 8.67531C12.9636 8.8389 12.77 8.99016 12.567 9.12807C12.4242 9.22884 12.2693 9.31118 12.1059 9.37315L12.09 9.378L12.0602 9.34892C11.9159 9.20498 11.7698 9.06282 11.622 8.92246L11.5736 8.87607C11.3776 8.69051 11.1765 8.51044 10.9706 8.33607C10.7788 8.17546 10.56 8.00515 10.3641 7.89784C9.92586 7.65761 9.51256 7.84523 9.32632 7.965L8.60425 8.43161L8.58486 8.44615C8.28648 8.66977 8.08433 8.658 7.93756 8.61369C7.78109 8.56661 7.62325 8.45792 7.48063 8.32292C7.83783 7.91928 8.21298 7.53189 8.60494 7.16192C8.83479 6.948 9.06117 6.75554 9.26679 6.60461C9.4814 6.44815 9.63786 6.36438 9.73063 6.33392C10.1516 6.19338 10.6784 6.07915 11.1152 5.99884C11.3453 5.95673 11.5761 5.91911 11.8076 5.886L11.8477 5.88046Z" fill="#F97316"/>
<path fill-rule="evenodd" clip-rule="evenodd" d="M5.97389 4.89599C5.8096 4.9683 5.67981 5.1016 5.61191 5.26776C5.54401 5.43392 5.5433 5.61997 5.60993 5.78664C5.67657 5.95332 5.80533 6.0876 5.96907 6.16116C6.13281 6.23471 6.31872 6.2418 6.48758 6.18092L6.50558 6.17399L6.55958 6.15322C6.83055 6.04634 7.10288 5.94294 7.3765 5.84307C7.60981 5.75792 7.84589 5.67622 8.04112 5.61599C8.13412 5.58732 8.2281 5.56191 8.32289 5.53984L8.36097 5.54538C8.40297 5.55184 8.45604 5.56199 8.5202 5.57584C8.64689 5.60422 8.79504 5.64369 8.93974 5.68522C9.10492 5.73238 9.26925 5.78247 9.43266 5.83545L9.46381 5.84584L9.47074 5.84861H9.47281C9.64622 5.90393 9.83445 5.88873 9.99674 5.80631C10.159 5.72388 10.2823 5.58085 10.3399 5.40819C10.3976 5.23552 10.3849 5.04711 10.3046 4.88375C10.2243 4.72038 10.0829 4.5952 9.91104 4.5353L9.69712 5.17776L9.91174 4.5353L9.90689 4.53392L9.8972 4.53115L9.8612 4.51938C9.68183 4.46048 9.50134 4.40509 9.31981 4.35322C9.15446 4.30553 8.98778 4.26259 8.81997 4.22445C8.65211 4.18321 8.48041 4.15955 8.30766 4.15384C8.1782 4.15384 8.04666 4.18153 7.96081 4.2023C7.85904 4.22584 7.7462 4.25769 7.63335 4.2923C7.38799 4.36971 7.14447 4.45281 6.90297 4.54153C6.61771 4.64556 6.33384 4.75334 6.05143 4.86484L5.99466 4.88699L5.97389 4.89599ZM4.97281 8.84076L4.99427 8.86084L5.05727 8.91899C5.37166 9.21086 5.68875 9.49979 6.0085 9.78576C6.28127 10.0295 6.56304 10.2759 6.8012 10.4725C6.9212 10.5722 7.0232 10.6535 7.1072 10.7162C7.16258 10.7568 7.1995 10.7829 7.21797 10.7945L9.18135 11.5304C9.2958 11.5733 9.41956 11.5851 9.54006 11.5647C9.66057 11.5443 9.77351 11.4923 9.86743 11.4141L11.3261 10.1991C11.3956 10.1383 11.4765 10.092 11.5642 10.063C11.6518 10.0339 11.7443 10.0227 11.8364 10.03C11.9284 10.0372 12.018 10.0628 12.1 10.1052C12.182 10.1476 12.2547 10.206 12.3138 10.2769C12.3729 10.3478 12.4172 10.4299 12.4442 10.5182C12.4711 10.6065 12.4801 10.6992 12.4706 10.7911C12.4612 10.8829 12.4334 10.9719 12.3891 11.0529C12.3447 11.1338 12.2846 11.2051 12.2123 11.2625L10.7543 12.4781C10.4725 12.7129 10.1335 12.8689 9.77185 12.9302C9.41021 12.9915 9.03878 12.9559 8.69535 12.8271L6.64612 12.0586L6.61358 12.042C6.41904 11.9451 6.14835 11.7305 5.9185 11.5394C5.63681 11.3044 5.35938 11.0644 5.08635 10.8194C4.75967 10.5272 4.43588 10.2318 4.11504 9.93322L4.04997 9.87299L4.02712 9.85222C3.89299 9.72682 3.81418 9.55326 3.80801 9.36975C3.80184 9.18623 3.86883 9.00778 3.99424 8.87365C4.11964 8.73952 4.29319 8.6607 4.47671 8.65453C4.66023 8.64837 4.83868 8.71536 4.97281 8.84076ZM4.45497 12.3639C4.51327 12.2941 4.58476 12.2365 4.66535 12.1943C4.74593 12.1522 4.83404 12.1263 4.92462 12.1182C5.01521 12.1101 5.10651 12.1199 5.1933 12.1471C5.28008 12.1743 5.36066 12.2183 5.43043 12.2767L6.09366 12.8305C6.19282 12.9134 6.31321 12.9669 6.4412 12.9849L7.29758 13.1047C7.38763 13.1173 7.47431 13.1476 7.55267 13.1937C7.63103 13.2398 7.69954 13.301 7.75428 13.3736C7.80902 13.4462 7.84892 13.5289 7.87171 13.6169C7.8945 13.7049 7.89972 13.7966 7.88708 13.8866C7.87444 13.9767 7.84419 14.0634 7.79806 14.1417C7.75192 14.2201 7.6908 14.2886 7.61819 14.3433C7.54558 14.3981 7.4629 14.438 7.37486 14.4608C7.28683 14.4836 7.19517 14.4888 7.10512 14.4761L6.24943 14.3564C5.86523 14.3025 5.50381 14.142 5.20612 13.8932L4.54289 13.3394C4.47294 13.2811 4.41517 13.2096 4.37288 13.129C4.33059 13.0484 4.30462 12.9602 4.29646 12.8695C4.28829 12.7789 4.29809 12.6875 4.32529 12.6006C4.35249 12.5137 4.39655 12.4337 4.45497 12.3639Z" fill="#F97316"/>
<path fill-rule="evenodd" clip-rule="evenodd" d="M9 16.6154C13.2058 16.6154 16.6154 13.2058 16.6154 9C16.6154 4.79423 13.2058 1.38462 9 1.38462C4.79423 1.38462 1.38462 4.79423 1.38462 9C1.38462 13.2058 4.79423 16.6154 9 16.6154ZM9 18C13.9708 18 18 13.9708 18 9C18 4.02923 13.9708 0 9 0C4.02923 0 0 4.02923 0 9C0 13.9708 4.02923 18 9 18Z" fill="#F97316"/>
</g>
<defs>
<clipPath id="clip0_198_1179">
<rect width="18" height="18" fill="white"/>
</clipPath>
</defs>
</svg>
