<svg width="35" height="46" viewBox="0 0 35 46" fill="none" xmlns="http://www.w3.org/2000/svg">
<path fill-rule="evenodd" clip-rule="evenodd" d="M21.5625 41.6887L4.3125 34.5012V11.5012L21.5625 4.3137V41.6887ZM1.76813 38.1122C1.24443 37.8937 0.797094 37.5252 0.482456 37.053C0.167819 36.5808 -4.73287e-05 36.026 1.00095e-08 35.4586V10.5438C-4.73287e-05 9.97639 0.167819 9.42163 0.482456 8.94942C0.797094 8.47721 1.24443 8.10866 1.76813 7.8902L19.9036 0.331824C20.5591 0.05868 21.2718 -0.0483902 21.9786 0.0201206C22.6854 0.0886313 23.3643 0.330603 23.955 0.72455C24.5458 1.1185 25.0302 1.65223 25.3651 2.27835C25.7001 2.90448 25.8752 3.60362 25.875 4.3137V5.7512H29.4688C32.246 5.7512 34.5 8.00232 34.5 10.7824V35.2199C34.5 36.5543 33.9699 37.834 33.0264 38.7776C32.0828 39.7211 30.8031 40.2512 29.4688 40.2512H25.875V41.6887C25.8752 42.3988 25.7001 43.0979 25.3651 43.724C25.0302 44.3502 24.5458 44.8839 23.955 45.2778C23.3643 45.6718 22.6854 45.9138 21.9786 45.9823C21.2718 46.0508 20.5591 45.9437 19.9036 45.6706L1.76813 38.1122ZM25.875 35.9387H29.4688C29.6594 35.9387 29.8422 35.863 29.977 35.7282C30.1118 35.5934 30.1875 35.4106 30.1875 35.2199V10.7824C30.1875 10.5918 30.1118 10.409 29.977 10.2742C29.8422 10.1394 29.6594 10.0637 29.4688 10.0637H25.875V35.9387Z" fill="#7C4DFF"/>
</svg>
