<svg width="28" height="28" viewBox="0 0 28 28" fill="none" xmlns="http://www.w3.org/2000/svg">
<path d="M22.5115 24.1194L15.2757 16.8836C14.7014 17.343 14.041 17.7067 13.2944 17.9747C12.5479 18.2427 11.7535 18.3767 10.9112 18.3767C8.82467 18.3767 7.05897 17.6538 5.6141 16.2082C4.16923 14.7626 3.44641 12.9969 3.44564 10.9111C3.44487 8.82535 4.16769 7.05965 5.6141 5.61401C7.0605 4.16838 8.8262 3.44556 10.9112 3.44556C12.9962 3.44556 14.7623 4.16838 16.2094 5.61401C17.6566 7.05965 18.379 8.82535 18.3767 10.9111C18.3767 11.7534 18.2428 12.5478 17.9748 13.2943C17.7068 14.0409 17.3431 14.7013 16.8836 15.2756L24.1195 22.5114L22.5115 24.1194ZM10.9112 16.0796C12.3469 16.0796 13.5674 15.5773 14.5728 14.5727C15.5781 13.5681 16.0804 12.3476 16.0797 10.9111C16.0789 9.47466 15.5766 8.25452 14.5728 7.25069C13.5689 6.24686 12.3484 5.74418 10.9112 5.74265C9.47398 5.74112 8.25384 6.2438 7.25078 7.25069C6.24771 8.25759 5.74503 9.47772 5.74273 10.9111C5.74044 12.3445 6.24312 13.565 7.25078 14.5727C8.25843 15.5803 9.47857 16.0826 10.9112 16.0796Z" fill="black"/>
</svg>
