<svg width="24" height="17" viewBox="0 0 24 17" fill="none" xmlns="http://www.w3.org/2000/svg">
<path d="M11.7498 4.80675C10.9 4.80675 10.0849 5.14437 9.48391 5.74533C8.88295 6.34629 8.54534 7.16137 8.54534 8.01125C8.54534 8.86114 8.88295 9.67622 9.48391 10.2772C10.0849 10.8781 10.9 11.2158 11.7498 11.2158C12.5997 11.2158 13.4148 10.8781 14.0158 10.2772C14.6167 9.67622 14.9543 8.86114 14.9543 8.01125C14.9543 7.16137 14.6167 6.34629 14.0158 5.74533C13.4148 5.14437 12.5997 4.80675 11.7498 4.80675ZM11.7498 13.3521C10.3334 13.3521 8.9749 12.7894 7.9733 11.7878C6.9717 10.7862 6.409 9.42773 6.409 8.01125C6.409 6.59478 6.9717 5.23631 7.9733 4.23471C8.9749 3.23311 10.3334 2.67042 11.7498 2.67042C13.1663 2.67042 14.5248 3.23311 15.5264 4.23471C16.528 5.23631 17.0907 6.59478 17.0907 8.01125C17.0907 9.42773 16.528 10.7862 15.5264 11.7878C14.5248 12.7894 13.1663 13.3521 11.7498 13.3521ZM11.7498 0C6.409 0 1.84793 3.322 0 8.01125C1.84793 12.7005 6.409 16.0225 11.7498 16.0225C17.0907 16.0225 21.6517 12.7005 23.4997 8.01125C21.6517 3.322 17.0907 0 11.7498 0Z" fill="#436DEE"/>
</svg>
